<svg width="5.6872in" height="4.8694in" version="1.1" viewBox="2453 2488 6843.6 5868.6" xmlns="http://www.w3.org/2000/svg"><g transform="translate(-6869.6 -3050.9)"><path d="m14557 9753.9c-297.9 2.2717-583.5 128.69-761.37 350.5-227.68 283.93-227.68 664.91 0 948.84 227.68 283.94 631.86 411.7 1012.7 322.46l34.328-8.05v-488.46l-61.839 23.04c-109.39 40.753-213.24 59.372-303.16 51.793-89.926-7.578-165.88-39.649-228.4-104.74-154.43-160.78-154.43-380.15 0-540.93 123.08-128.14 355.98-144.23 528.7-66.483l64.708 29.124v-481.04l-34.328-8.0269c-83.314-19.522-167.91-28.672-251.33-28.036z" color="#000000" fill="#d10000" stroke="#d10000" stroke-width="7.2312"/><g stroke="#000"><g stroke-width="7"><rect x="9320.8" y="9753.9" width="600" height="1650" rx="0"/><polygon transform="translate(6845.8 3003.9)" points="4800 7575 4500 8400 4200 8400 3900 7575 3900 8400 3300 8400 3525 6750 4050 6750 4350 7725 4650 6750 5175 6750 5400 8400 4800 8400"/><polygon transform="translate(6845.8 3003.9)" points="6075 7425 6075 7125 6675 7125 6675 6750 5625 6750 5625 8400 6675 8400 6675 8025 6075 8025 6075 7725 6525 7725 6525 7425"/></g><path d="m15882 9753.9c-297.9 2.2717-583.5 128.69-761.37 350.5-227.68 283.93-227.68 664.91 0 948.84 227.68 283.94 631.86 411.7 1012.7 322.46l34.328-8.05v-488.46l-61.839 23.04c-109.39 40.753-213.24 59.372-303.16 51.793-89.926-7.578-165.88-39.649-228.4-104.74-154.43-160.78-154.43-380.15 0-540.93 123.08-128.14 355.98-144.23 528.7-66.483l64.708 29.124v-481.04l-34.328-8.0269c-83.314-19.522-167.91-28.672-251.33-28.036z" color="#000000" stroke-width="7.2312"/></g></g><g><g stroke="#000"><path d="m2462.8 5889.3a577.29 577.29 0 0 1 577.29 577.29h-577.29z" fill="none" stroke-width="30.13"/><path d="m2462.8 5889.3a577.29 577.29 0 0 1 577.29 577.29h-577.29z" stroke-width="7.2312"/></g><path d="m2447.7 2540.7a3925.9 3925.9 0 0 1 3925.9 3925.9" fill="none" stroke="#d10000" stroke-width="104.85"/></g><g stroke="#000" stroke-width="30.13"><path d="m8461.9 3616.6v2850" fill="#f00"/><g fill="none"><path d="m8461.9 2503.1v975"/><path d="m2462.8 6466.6 5999.1-2988.6h825v-975h-825z"/><path d="m2462.8 6466.6h6824.1l-1e-4 -2850h-825z"/><path d="m2462.8 6466.6 5999.1-950"/><path d="m2462.8 6466.6 5999.1-1900"/></g></g><rect x="8461.9" y="2503.1" width="825" height="975" rx="0" stroke="#000" stroke-width="7"/><rect x="8461.9" y="3616.6" width="825" height="2850" rx="0" stroke="#000" stroke-width="7"/></svg>
